<svg width="30.000000" height="30.000000" viewBox="0 0 30 30" fill="none" xmlns="http://www.w3.org/2000/svg" xmlns:xlink="http://www.w3.org/1999/xlink">
	<desc>
			Created with Pixso.
	</desc>
	<defs/>
	<path id="Vector" d="M2.59 7.83C2.83 7.52 3.15 7.1 3.4 6.81C4.17 5.99 4.26 5.88 4.96 5.27C5.17 5.11 5.41 4.92 5.65 4.74C3.89 6.15 3.66 7.72 5.28 8.68C5.28 8.68 5.28 8.68 5.28 8.68C7.54 9.97 12.5 9.7 16.41 8.04C20.21 6.44 21.61 4.15 19.73 2.79C18.09 2.5 16.13 2.47 14.06 2.73L13.85 2.39L14.02 1.84C15.24 1.73 16.4 1.76 17.4 1.92C17.64 1.96 17.96 2.03 18.2 2.07C18.66 2.18 18.91 2.24 19.21 2.33C19.51 2.42 19.78 2.51 20.23 2.67C20.68 2.83 20.87 2.91 21.23 3.08C21.63 3.25 22.02 3.45 22.4 3.66C25.38 5.44 23.52 8.67 18.26 10.89C13.02 13.1 6.33 13.45 3.34 11.7C3.33 11.69 3.33 11.69 3.32 11.69L3.33 11.69C1.69 10.71 1.52 9.29 2.59 7.83ZM16.24 20.23L16.19 18.24L14.7 16.66C9.75 17.72 4.89 17.49 2.18 15.99C2.18 15.98 2.15 15.97 2.14 15.96C0.61 15.07 0.24 13.92 0.35 12.67C-0.01 14.49 -0.04 15.15 0.01 16.72C0.08 17.7 0.68 18.6 1.88 19.32L1.89 19.33C4.77 21.02 10.78 21.39 16.24 20.23ZM22.48 22.51C15.5 25.16 6.76 25.31 2.97 22.86C3.38 23.81 3.93 24.69 4.62 25.49C8.1 27.74 16.12 27.59 22.53 25.16C26.28 23.74 28.64 21.85 29.26 20.08L29.44 19.54C29.85 18.19 29.93 17.06 30 16.06C29.92 18.24 27.21 20.71 22.48 22.51ZM7.07 27.61C7.29 27.81 7.98 28.61 11.47 29.49C12.42 29.69 14.8 30.33 19.19 29.4L19.22 29.03L18.87 28.51C14.79 29.42 10.26 29.12 7.07 27.61ZM17.16 11.85L20.87 14.51C20.87 14.51 21.66 15.05 20.91 15.43C20.17 15.81 18.25 16.73 18.25 16.73L16.36 16.06L15.41 16.46L17.08 17.84L17.09 19.98L18.08 19.56L18.73 17.76C18.73 17.76 20.74 17.03 21.53 16.75C22.33 16.48 22.22 17.4 22.22 17.4L21.83 21.79L23.14 21.24L25.29 15.32C25.29 15.32 26.43 14.79 27.24 14.33C28.04 13.87 28.31 13.11 28.31 13.11C28.31 13.11 27.53 12.79 26.63 13.04C25.73 13.3 24.55 13.75 24.55 13.75L18.46 11.3L17.16 11.85ZM9.3 3.43L11.82 5.33L12.51 5.23L11.14 3.53C11.14 3.53 10.84 3.17 11.24 3.09C11.65 3.01 12.67 2.81 12.67 2.81L13.44 3.39L13.96 3.32L13.37 2.43L13.68 1.45L13.18 1.52L12.59 2.27C12.59 2.27 11.54 2.36 11.13 2.39C10.72 2.42 10.9 2.01 10.9 2.01L11.69 0L11 0.09L9.17 2.6C9.17 2.6 8.57 2.71 8.13 2.83C7.68 2.94 7.45 3.27 7.45 3.27C7.45 3.27 7.78 3.51 8.23 3.51C8.69 3.5 9.3 3.43 9.3 3.43ZM21.76 27.83L20.13 27.02L19.75 27.14L20.72 27.96C20.72 27.96 20.92 28.13 20.71 28.22C20.49 28.3 19.94 28.52 19.94 28.52L19.48 28.33L19.21 28.42L19.59 28.8L19.55 29.36L19.84 29.27L20.05 28.81C20.05 28.81 20.62 28.65 20.85 28.6C21.08 28.54 21.03 28.79 21.03 28.79L20.81 30L21.19 29.87L21.93 28.28C21.93 28.28 22.25 28.16 22.49 28.04C22.72 27.93 22.81 27.73 22.81 27.73C22.81 27.73 22.6 27.62 22.35 27.67C22.09 27.73 21.76 27.83 21.76 27.83Z" fill="#FFFFFF" fill-opacity="1.000000" fill-rule="nonzero"/>
</svg>
